<svg width="119" height="20" viewBox="0 0 119 20" fill="none" xmlns="http://www.w3.org/2000/svg">
<path d="M11.4213 2.29976L13.0601 5.49359C13.2835 5.93819 13.8795 6.36463 14.3823 6.4463L17.3526 6.92718C19.2521 7.23568 19.6991 8.57853 18.3303 9.90324L16.0211 12.1534C15.63 12.5345 15.4158 13.2695 15.5369 13.7957L16.198 16.5812C16.7194 18.7861 15.5183 19.639 13.5163 18.4867L10.7322 16.8807C10.2294 16.5903 9.4007 16.5903 8.88857 16.8807L6.10445 18.4867C4.11181 19.639 2.90134 18.777 3.42277 16.5812L4.08388 13.7957C4.20493 13.2695 3.99077 12.5345 3.59969 12.1534L1.29047 9.90324C-0.0689871 8.57853 0.368647 7.23568 2.26816 6.92718L5.23849 6.4463C5.73199 6.36463 6.32792 5.93819 6.55139 5.49359L8.19022 2.29976C9.08411 0.566746 10.5367 0.566746 11.4213 2.29976Z" fill="#F0A30C" stroke="#F0A30C" stroke-width="0.5" stroke-linecap="round" stroke-linejoin="round"/>
<path d="M36.2572 2.29976L37.896 5.49359C38.1195 5.93819 38.7154 6.36463 39.2182 6.4463L42.1885 6.92718C44.0881 7.23568 44.535 8.57853 43.1662 9.90324L40.857 12.1534C40.4659 12.5345 40.2518 13.2695 40.3728 13.7957L41.0339 16.5812C41.5554 18.7861 40.3542 19.639 38.3523 18.4867L35.5682 16.8807C35.0653 16.5903 34.2366 16.5903 33.7245 16.8807L30.9404 18.4867C28.9478 19.639 27.7373 18.777 28.2587 16.5812L28.9198 13.7957C29.0409 13.2695 28.8267 12.5345 28.4356 12.1534L26.1264 9.90324C24.767 8.57853 25.2046 7.23568 27.1041 6.92718L30.0744 6.4463C30.5679 6.36463 31.1639 5.93819 31.3873 5.49359L33.0262 2.29976C33.92 0.566746 35.3726 0.566746 36.2572 2.29976Z" fill="#F0A30C" stroke="#F0A30C" stroke-width="0.5" stroke-linecap="round" stroke-linejoin="round"/>
<path d="M61.0853 2.29976L62.7241 5.49359C62.9476 5.93819 63.5435 6.36463 64.0463 6.4463L67.0167 6.92718C68.9162 7.23568 69.3631 8.57853 67.9944 9.90324L65.6851 12.1534C65.2941 12.5345 65.0799 13.2695 65.2009 13.7957L65.8621 16.5812C66.3835 18.7861 65.1823 19.639 63.1804 18.4867L60.3963 16.8807C59.8935 16.5903 59.0648 16.5903 58.5526 16.8807L55.7685 18.4867C53.7759 19.639 52.5654 18.777 53.0868 16.5812L53.7479 13.7957C53.869 13.2695 53.6548 12.5345 53.2638 12.1534L50.9545 9.90324C49.5951 8.57853 50.0327 7.23568 51.9322 6.92718L54.9026 6.4463C55.3961 6.36463 55.992 5.93819 56.2155 5.49359L57.8543 2.29976C58.7482 0.566746 60.2007 0.566746 61.0853 2.29976Z" fill="#F0A30C" stroke="#F0A30C" stroke-width="0.5" stroke-linecap="round" stroke-linejoin="round"/>
<path d="M85.9213 2.29976L87.5601 5.49359C87.7835 5.93819 88.3795 6.36463 88.8823 6.4463L91.8526 6.92718C93.7521 7.23568 94.1991 8.57853 92.8303 9.90324L90.5211 12.1534C90.13 12.5345 89.9158 13.2695 90.0369 13.7957L90.698 16.5812C91.2194 18.7861 90.0183 19.639 88.0163 18.4867L85.2322 16.8807C84.7294 16.5903 83.9007 16.5903 83.3886 16.8807L80.6044 18.4867C78.6118 19.639 77.4013 18.777 77.9228 16.5812L78.5839 13.7957C78.7049 13.2695 78.4908 12.5345 78.0997 12.1534L75.7905 9.90324C74.431 8.57853 74.8686 7.23568 76.7682 6.92718L79.7385 6.4463C80.232 6.36463 80.8279 5.93819 81.0514 5.49359L82.6902 2.29976C83.5841 0.566746 85.0367 0.566746 85.9213 2.29976Z" fill="#F0A30C" stroke="#F0A30C" stroke-width="0.5" stroke-linecap="round" stroke-linejoin="round"/>
<path d="M110.749 2.29976L112.388 5.49359C112.612 5.9382 113.208 6.36463 113.71 6.4463L116.681 6.92718C118.58 7.23568 119.027 8.57853 117.658 9.90324L115.349 12.1534C114.958 12.5345 114.744 13.2695 114.865 13.7957L115.526 16.5812C116.048 18.7861 114.846 19.639 112.844 18.4867L110.06 16.8807C109.558 16.5903 108.729 16.5903 108.217 16.8807L105.433 18.4867C103.44 19.639 102.229 18.777 102.751 16.5812L103.412 13.7957C103.533 13.2695 103.319 12.5345 102.928 12.1534L100.619 9.90324C99.2591 8.57853 99.6968 7.23568 101.596 6.92718L104.567 6.4463C105.06 6.36463 105.656 5.9382 105.88 5.49359L107.518 2.29976C108.412 0.566746 109.865 0.566746 110.749 2.29976Z" fill="url(#paint0_linear_5246_2769)" stroke="#F0A30C" stroke-width="0.5" stroke-linecap="round" stroke-linejoin="round"/>
<defs>
<linearGradient id="paint0_linear_5246_2769" x1="99.8524" y1="10" x2="122.357" y2="10" gradientUnits="userSpaceOnUse">
<stop offset="0.40625" stop-color="#F0A30C"/>
<stop offset="0.40635" stop-color="white"/>
</linearGradient>
</defs>
</svg>
